<svg width="20" height="20" viewBox="0 0 20 20" fill="none" xmlns="http://www.w3.org/2000/svg">
<path d="M17.9314 5.79766C17.858 5.72866 17.769 5.67841 17.6721 5.65121C17.5751 5.624 17.4729 5.62064 17.3744 5.64141C17.253 5.20514 17.0466 4.79715 16.7671 4.44088C16.4876 4.0846 16.1405 3.78706 15.7456 3.56535C15.3508 3.34365 14.916 3.20214 14.4663 3.14896C14.0166 3.09578 13.5608 3.13198 13.1252 3.25548C12.8509 2.65709 12.4107 2.15002 11.8567 1.79451C11.3028 1.43901 10.6584 1.25003 10.0002 1.25003C9.34193 1.25003 8.69755 1.43901 8.14358 1.79451C7.58962 2.15002 7.14937 2.65709 6.87515 3.25548C6.43959 3.13182 5.98388 3.09543 5.53421 3.1484C5.08454 3.20137 4.64976 3.34265 4.25485 3.56414C3.85994 3.78562 3.51268 4.08294 3.233 4.43902C2.95333 4.7951 2.74676 5.20293 2.62515 5.63907C2.52248 5.618 2.41616 5.62309 2.31597 5.65387C2.21578 5.68465 2.12494 5.74013 2.05181 5.81521C1.97868 5.89028 1.9256 5.98255 1.89746 6.08351C1.86932 6.18447 1.86702 6.29089 1.89078 6.39298L4.27828 16.5367C4.34291 16.811 4.49829 17.0553 4.71923 17.2302C4.94017 17.405 5.21371 17.5001 5.49547 17.5H14.5048C14.7866 17.5001 15.0601 17.405 15.2811 17.2302C15.502 17.0553 15.6574 16.811 15.722 16.5367L18.1087 6.39298C18.1336 6.2869 18.1304 6.17615 18.0993 6.07173C18.0682 5.9673 18.0103 5.87282 17.9314 5.79766ZM5.93765 4.37501C6.29485 4.37401 6.64674 4.46151 6.96187 4.62969C7.04695 4.67482 7.1413 4.69968 7.23757 4.70232C7.33384 4.70497 7.42941 4.68533 7.51684 4.64495C7.60426 4.60456 7.68117 4.54452 7.74157 4.46951C7.80196 4.39449 7.8442 4.30654 7.865 4.21251C7.97318 3.7269 8.24367 3.29268 8.63183 2.98147C9.01999 2.67027 9.50264 2.50068 10.0002 2.50068C10.4977 2.50068 10.9803 2.67027 11.3685 2.98147C11.7566 3.29268 12.0271 3.7269 12.1353 4.21251C12.1561 4.30654 12.1983 4.39449 12.2587 4.46951C12.3191 4.54452 12.396 4.60456 12.4835 4.64495C12.5709 4.68533 12.6665 4.70497 12.7627 4.70232C12.859 4.69968 12.9534 4.67482 13.0384 4.62969C13.3277 4.47624 13.6478 4.38969 13.975 4.37644C14.3022 4.3632 14.6282 4.42359 14.929 4.55316C15.2298 4.68273 15.4976 4.87818 15.7127 5.12508C15.9279 5.37198 16.0848 5.66403 16.172 5.97969L13.1595 6.83907L10.465 5.76094C10.1671 5.64183 9.83478 5.64183 9.53687 5.76094L6.84156 6.84063L3.82828 5.97969C3.95583 5.51825 4.23125 5.11139 4.61227 4.82152C4.9933 4.53166 5.4589 4.3748 5.93765 4.37501ZM5.49547 16.25L3.3525 7.14376L6.30953 7.98829L7.41109 16.25H5.49547ZM11.3283 16.25H8.67203L7.55875 7.90001L10.0002 6.92344L12.4416 7.90001L11.3283 16.25ZM14.5048 16.25H12.5892L13.6908 7.98829L16.6478 7.14376L14.5048 16.25Z" fill="#7A7B9F"/>
</svg>
